# xmcd CD database file
#
# Track frame offsets:
#	150
#	16205
#	40993
#
# Disc length: 799 seconds
#
# Revision: 0
# Processed by: cddbd v1.5PL3 Copyright (c) Steve Scherf et al.
# Submitted via: CDex 1.51
#
DISCID=1a031d03
DTITLE=OUTLAW - 僕の存在は嘘じゃなかった
DYEAR=2004
DGENRE=Rock
TTITLE0=僕の存在は嘘じゃなかった
TTITLE1=君の空は何色か
TTITLE2=夜は静かに
EXTD=YEAR: 2004
EXTT0=
EXTT1=
EXTT2=
PLAYORDER=
